# xmcd
#
# Track frame offsets: 
#        150
#        14140
#        23892
#        36385
#        48080
#        60270
#        68495
#        76365
#        88985
#        103767
#        114407
#        128740
#
# Disc length: 2084 seconds
#
# Revision: 0
# Processed by: cddbd v1.5.2PL0 Copyright (c) Steve Scherf et al.
# Submitted via: ExactAudioCopyFreeDBPlugin 1.0
#
DISCID=9808220c
DTITLE=The Delta Bombers - Wolf
DYEAR=2012
DGENRE=Rockabilly
TTITLE0=The Wolf
TTITLE1=So Lost
TTITLE2=Baby You're Mine
TTITLE3=Who Are You?
TTITLE4=The Burden
TTITLE5=Get Some
TTITLE6=Hole In My Head
TTITLE7=Love Like You
TTITLE8=The Last Time
TTITLE9=Witch Doctor
TTITLE10=Stumbling Block
TTITLE11=Smokestack Lightning
EXTD=
EXTT0=
EXTT1=
EXTT2=
EXTT3=
EXTT4=
EXTT5=
EXTT6=
EXTT7=
EXTT8=
EXTT9=
EXTT10=
EXTT11=
PLAYORDER=
